<svg width="257" height="256" viewBox="0 0 257 256" fill="none" xmlns="http://www.w3.org/2000/svg">
<rect width="257" height="256" rx="18" fill="#4CAF50"/>
<path d="M179 181.147C179 252.507 77 256 77 256H238.5C248.441 256 256.5 247.941 256.5 238V18C256.5 8.05888 248.441 0 238.5 0H179C179 0 76.9999 14.4721 77 77.3493C77.0001 140.226 179 109.786 179 181.147Z" fill="#43A047"/>
<path d="M100.034 101.589H112.161C116.992 119.821 122.492 135.819 128.627 150.254C135.576 134.013 140.67 118.004 144.982 101.589H156.441C151.309 121.986 142.914 142.543 133.312 163.761H123.176C113.952 143.654 106.1 122.98 100.034 101.589ZM60.0351 70H86.9999V185.63H59.9161V176.716H76.5149V78.6758H60.0351V70ZM196.577 78.6759H180.097V176.716H196.696V185.63H169.613V70.0001H196.577V78.6759Z" fill="white"/>
<path d="M57.0437 115.357C56.7652 112.885 55.6162 110.97 53.5968 109.612C51.5774 108.237 49.0357 107.549 45.9718 107.549C43.7783 107.549 41.8807 107.897 40.2791 108.594C38.6775 109.273 37.4328 110.213 36.545 111.414C35.6745 112.598 35.2393 113.947 35.2393 115.461C35.2393 116.732 35.5353 117.829 36.1272 118.752C36.7365 119.674 37.5286 120.449 38.5034 121.076C39.4957 121.685 40.5577 122.199 41.6892 122.616C42.8208 123.017 43.9088 123.348 44.9534 123.609L50.176 124.967C51.882 125.384 53.6316 125.95 55.4247 126.664C57.2178 127.378 58.8803 128.318 60.4123 129.484C61.9443 130.651 63.1803 132.095 64.1204 133.819C65.0778 135.542 65.5566 137.605 65.5566 140.008C65.5566 143.037 64.7732 145.726 63.2064 148.077C61.657 150.427 59.4026 152.281 56.4431 153.639C53.501 154.997 49.941 155.676 45.7629 155.676C41.7589 155.676 38.2945 155.04 35.3699 153.769C32.4452 152.498 30.156 150.697 28.5021 148.364C26.8483 146.014 25.9344 143.228 25.7603 140.008H33.8553C34.012 141.94 34.6387 143.55 35.7355 144.839C36.8496 146.109 38.2684 147.058 39.9919 147.685C41.7328 148.294 43.639 148.599 45.7106 148.599C47.9912 148.599 50.0193 148.242 51.795 147.528C53.5881 146.797 54.9982 145.787 56.0253 144.499C57.0524 143.194 57.566 141.67 57.566 139.929C57.566 138.345 57.1133 137.048 56.2081 136.039C55.3203 135.029 54.1103 134.193 52.5784 133.532C51.0638 132.87 49.3491 132.287 47.4341 131.782L41.1148 130.059C36.8322 128.892 33.4375 127.178 30.9307 124.914C28.4412 122.651 27.1965 119.657 27.1965 115.931C27.1965 112.85 28.0321 110.161 29.7033 107.863C31.3746 105.565 33.6377 103.78 36.4927 102.509C39.3478 101.221 42.5684 100.577 46.1546 100.577C49.7756 100.577 52.9701 101.212 55.7381 102.483C58.5235 103.754 60.7169 105.504 62.3186 107.732C63.9202 109.943 64.7558 112.485 64.8254 115.357H57.0437Z" fill="white"/>
<path d="M223.645 115.357C223.366 112.885 222.217 110.97 220.198 109.612C218.179 108.237 215.637 107.549 212.573 107.549C210.379 107.549 208.482 107.897 206.88 108.594C205.279 109.273 204.034 110.213 203.146 111.414C202.276 112.598 201.841 113.947 201.841 115.461C201.841 116.732 202.136 117.829 202.728 118.752C203.338 119.674 204.13 120.449 205.105 121.076C206.097 121.685 207.159 122.199 208.29 122.616C209.422 123.017 210.51 123.348 211.555 123.609L216.777 124.967C218.483 125.384 220.233 125.95 222.026 126.664C223.819 127.378 225.482 128.318 227.013 129.484C228.545 130.651 229.781 132.095 230.722 133.819C231.679 135.542 232.158 137.605 232.158 140.008C232.158 143.037 231.374 145.726 229.808 148.077C228.258 150.427 226.004 152.281 223.044 153.639C220.102 154.997 216.542 155.676 212.364 155.676C208.36 155.676 204.896 155.04 201.971 153.769C199.046 152.498 196.757 150.697 195.103 148.364C193.45 146.014 192.536 143.228 192.361 140.008H200.457C200.613 141.94 201.24 143.55 202.337 144.839C203.451 146.109 204.87 147.058 206.593 147.685C208.334 148.294 210.24 148.599 212.312 148.599C214.592 148.599 216.62 148.242 218.396 147.528C220.189 146.797 221.599 145.787 222.627 144.499C223.654 143.194 224.167 141.67 224.167 139.929C224.167 138.345 223.715 137.048 222.809 136.039C221.921 135.029 220.712 134.193 219.18 133.532C217.665 132.87 215.95 132.287 214.035 131.782L207.716 130.059C203.433 128.892 200.039 127.178 197.532 124.914C195.042 122.651 193.798 119.657 193.798 115.931C193.798 112.85 194.633 110.161 196.305 107.863C197.976 105.565 200.239 103.78 203.094 102.509C205.949 101.221 209.17 100.577 212.756 100.577C216.377 100.577 219.571 101.212 222.339 102.483C225.125 103.754 227.318 105.504 228.92 107.732C230.521 109.943 231.357 112.485 231.427 115.357H223.645Z" fill="white"/>
</svg>
